<svg width="174" height="44" viewBox="0 0 174 44" fill="none" xmlns="http://www.w3.org/2000/svg">
<path d="M59.376 30.288C58.064 30.288 56.856 29.984 55.752 29.376C54.648 28.768 53.76 27.872 53.088 26.688C52.432 25.488 52.104 24.016 52.104 22.272C52.104 20.544 52.44 19.072 53.112 17.856C53.8 16.624 54.704 15.688 55.824 15.048C56.96 14.392 58.184 14.064 59.496 14.064C60.504 14.064 61.408 14.272 62.208 14.688C63.008 15.088 63.672 15.56 64.2 16.104L62.328 18.36C61.928 17.992 61.504 17.696 61.056 17.472C60.624 17.232 60.128 17.112 59.568 17.112C58.864 17.112 58.216 17.312 57.624 17.712C57.048 18.112 56.584 18.688 56.232 19.44C55.896 20.192 55.728 21.096 55.728 22.152C55.728 23.752 56.072 25 56.76 25.896C57.448 26.792 58.368 27.24 59.52 27.24C60.16 27.24 60.728 27.096 61.224 26.808C61.736 26.52 62.184 26.176 62.568 25.776L64.44 27.984C63.128 29.52 61.44 30.288 59.376 30.288ZM71.6408 30.288C70.6328 30.288 69.6808 30.048 68.7848 29.568C67.9048 29.072 67.1928 28.36 66.6488 27.432C66.1048 26.488 65.8328 25.36 65.8328 24.048C65.8328 22.72 66.1048 21.592 66.6488 20.664C67.1928 19.736 67.9048 19.032 68.7848 18.552C69.6808 18.056 70.6328 17.808 71.6408 17.808C72.6488 17.808 73.5928 18.056 74.4728 18.552C75.3528 19.032 76.0648 19.736 76.6088 20.664C77.1528 21.592 77.4248 22.72 77.4248 24.048C77.4248 25.36 77.1528 26.488 76.6088 27.432C76.0648 28.36 75.3528 29.072 74.4728 29.568C73.5928 30.048 72.6488 30.288 71.6408 30.288ZM71.6408 27.432C72.3608 27.432 72.9048 27.128 73.2728 26.52C73.6408 25.896 73.8248 25.072 73.8248 24.048C73.8248 23.008 73.6408 22.184 73.2728 21.576C72.9048 20.968 72.3608 20.664 71.6408 20.664C70.9048 20.664 70.3528 20.968 69.9848 21.576C69.6328 22.184 69.4568 23.008 69.4568 24.048C69.4568 25.072 69.6328 25.896 69.9848 26.52C70.3528 27.128 70.9048 27.432 71.6408 27.432ZM78.8886 30V28.104L83.8806 20.856H79.4406V18.096H88.2726V19.968L83.2806 27.24H88.4406V30H78.8886ZM91.7081 34.656C91.3561 34.656 91.0441 34.632 90.7721 34.584C90.5161 34.536 90.2681 34.48 90.0281 34.416L90.6521 31.728C90.7641 31.744 90.8921 31.768 91.0361 31.8C91.1801 31.848 91.3161 31.872 91.4441 31.872C92.0361 31.872 92.4921 31.728 92.8121 31.44C93.1321 31.152 93.3721 30.776 93.5321 30.312L93.7001 29.688L89.1161 18.096H92.6681L94.3721 23.208C94.5481 23.752 94.7081 24.304 94.8521 24.864C94.9961 25.424 95.1481 26 95.3081 26.592H95.4041C95.5321 26.032 95.6601 25.472 95.7881 24.912C95.9321 24.336 96.0761 23.768 96.2201 23.208L97.6601 18.096H101.044L96.9161 30.12C96.5481 31.112 96.1401 31.944 95.6921 32.616C95.2441 33.304 94.7001 33.816 94.0601 34.152C93.4361 34.488 92.6521 34.656 91.7081 34.656ZM103.336 30V14.304H108.28C109.448 14.304 110.488 14.456 111.4 14.76C112.312 15.064 113.032 15.568 113.56 16.272C114.088 16.976 114.352 17.936 114.352 19.152C114.352 20.304 114.088 21.256 113.56 22.008C113.032 22.76 112.32 23.32 111.424 23.688C110.528 24.056 109.512 24.24 108.376 24.24H106.12V30H103.336ZM106.12 22.008H108.16C110.464 22.008 111.616 21.056 111.616 19.152C111.616 18.16 111.312 17.48 110.704 17.112C110.112 16.728 109.232 16.536 108.064 16.536H106.12V22.008ZM119.753 30.288C118.777 30.288 118.081 29.992 117.665 29.4C117.265 28.808 117.065 28 117.065 26.976V13.056H119.825V27.12C119.825 27.456 119.889 27.696 120.017 27.84C120.145 27.968 120.281 28.032 120.425 28.032C120.489 28.032 120.545 28.032 120.593 28.032C120.657 28.016 120.745 28 120.857 27.984L121.217 30.048C121.057 30.112 120.849 30.168 120.593 30.216C120.353 30.264 120.073 30.288 119.753 30.288ZM126.436 30.288C125.412 30.288 124.572 29.968 123.916 29.328C123.276 28.688 122.956 27.856 122.956 26.832C122.956 25.568 123.508 24.592 124.612 23.904C125.716 23.2 127.476 22.72 129.892 22.464C129.876 21.84 129.708 21.304 129.388 20.856C129.084 20.392 128.532 20.16 127.732 20.16C127.156 20.16 126.588 20.272 126.028 20.496C125.484 20.72 124.948 20.992 124.42 21.312L123.412 19.464C124.068 19.048 124.804 18.688 125.62 18.384C126.452 18.08 127.332 17.928 128.26 17.928C129.732 17.928 130.828 18.368 131.548 19.248C132.284 20.112 132.652 21.368 132.652 23.016V30H130.372L130.18 28.704H130.084C129.556 29.152 128.988 29.528 128.38 29.832C127.788 30.136 127.14 30.288 126.436 30.288ZM127.324 28.128C127.804 28.128 128.236 28.016 128.62 27.792C129.02 27.552 129.444 27.232 129.892 26.832V24.192C128.292 24.4 127.18 24.712 126.556 25.128C125.932 25.528 125.62 26.024 125.62 26.616C125.62 27.144 125.78 27.528 126.1 27.768C126.42 28.008 126.828 28.128 127.324 28.128ZM140.875 30.288C139.803 30.288 138.835 30.048 137.971 29.568C137.123 29.072 136.443 28.368 135.931 27.456C135.435 26.528 135.187 25.416 135.187 24.12C135.187 22.808 135.459 21.696 136.003 20.784C136.547 19.856 137.267 19.152 138.163 18.672C139.075 18.176 140.051 17.928 141.091 17.928C141.843 17.928 142.499 18.056 143.059 18.312C143.619 18.568 144.115 18.88 144.547 19.248L143.203 21.048C142.899 20.776 142.587 20.568 142.267 20.424C141.947 20.264 141.603 20.184 141.235 20.184C140.291 20.184 139.515 20.544 138.907 21.264C138.315 21.984 138.019 22.936 138.019 24.12C138.019 25.288 138.307 26.232 138.883 26.952C139.475 27.672 140.235 28.032 141.163 28.032C141.627 28.032 142.059 27.936 142.459 27.744C142.875 27.536 143.251 27.296 143.587 27.024L144.715 28.848C144.171 29.328 143.563 29.688 142.891 29.928C142.219 30.168 141.547 30.288 140.875 30.288ZM151.495 30.288C150.407 30.288 149.423 30.048 148.543 29.568C147.663 29.072 146.967 28.368 146.455 27.456C145.943 26.528 145.687 25.416 145.687 24.12C145.687 22.84 145.943 21.736 146.455 20.808C146.983 19.88 147.663 19.168 148.495 18.672C149.327 18.176 150.199 17.928 151.111 17.928C152.183 17.928 153.079 18.168 153.799 18.648C154.519 19.112 155.063 19.768 155.431 20.616C155.799 21.448 155.983 22.416 155.983 23.52C155.983 24.096 155.943 24.544 155.863 24.864H148.375C148.503 25.904 148.879 26.712 149.503 27.288C150.127 27.864 150.911 28.152 151.855 28.152C152.367 28.152 152.839 28.08 153.271 27.936C153.719 27.776 154.159 27.56 154.591 27.288L155.527 29.016C154.967 29.384 154.343 29.688 153.655 29.928C152.967 30.168 152.247 30.288 151.495 30.288ZM148.351 22.992H153.583C153.583 22.08 153.383 21.368 152.983 20.856C152.583 20.328 151.983 20.064 151.183 20.064C150.495 20.064 149.879 20.32 149.335 20.832C148.807 21.328 148.479 22.048 148.351 22.992ZM161.907 30.288C161.107 30.288 160.307 30.136 159.507 29.832C158.707 29.512 158.019 29.12 157.443 28.656L158.739 26.88C159.267 27.28 159.795 27.6 160.323 27.84C160.851 28.08 161.411 28.2 162.003 28.2C162.643 28.2 163.115 28.064 163.419 27.792C163.723 27.52 163.875 27.184 163.875 26.784C163.875 26.448 163.747 26.176 163.491 25.968C163.251 25.744 162.939 25.552 162.555 25.392C162.171 25.216 161.771 25.048 161.355 24.888C160.843 24.696 160.331 24.464 159.819 24.192C159.323 23.904 158.915 23.544 158.595 23.112C158.275 22.664 158.115 22.112 158.115 21.456C158.115 20.416 158.499 19.568 159.267 18.912C160.035 18.256 161.075 17.928 162.387 17.928C163.219 17.928 163.963 18.072 164.619 18.36C165.275 18.648 165.843 18.976 166.323 19.344L165.051 21.024C164.635 20.72 164.211 20.48 163.779 20.304C163.363 20.112 162.923 20.016 162.459 20.016C161.867 20.016 161.427 20.144 161.139 20.4C160.851 20.64 160.707 20.944 160.707 21.312C160.707 21.776 160.947 22.128 161.427 22.368C161.907 22.608 162.467 22.84 163.107 23.064C163.651 23.256 164.179 23.496 164.691 23.784C165.203 24.056 165.627 24.416 165.963 24.864C166.315 25.312 166.491 25.904 166.491 26.64C166.491 27.648 166.099 28.512 165.315 29.232C164.531 29.936 163.395 30.288 161.907 30.288Z" fill="#FF7205"/>
<path d="M43.5473 41.2854H42.6955V15.9651C42.6955 15.7359 42.5589 15.5351 42.362 15.4747L22.6271 9.42738C22.4302 9.36704 22.2937 9.16621 22.2937 8.93702V4.1417C22.2937 1.85429 17.5951 0 11.7992 0C6.00319 0 1.30456 1.85434 1.30456 4.1417V41.2854H0.452675C0.202663 41.2854 0 41.513 0 41.7937V43.4917C0 43.7724 0.202663 44 0.452675 44H43.5473C43.7973 44 44 43.7724 44 43.4917V41.7937C44 41.513 43.7973 41.2854 43.5473 41.2854ZM4.89373 35.4166C4.89373 35.6446 4.75816 35.8438 4.56274 35.9061C3.93216 36.1071 3.35636 36.3339 2.84565 36.5823C2.54571 36.7282 2.21077 36.4841 2.21077 36.1172V33.8784C2.21077 33.6823 2.31163 33.5048 2.46884 33.4194C3.00259 33.1293 3.62113 32.8652 4.31001 32.6325C4.60063 32.5343 4.89373 32.7785 4.89373 33.1193V35.4166ZM4.89373 29.9839C4.89373 30.212 4.75816 30.4111 4.56274 30.4734C3.93216 30.6745 3.35636 30.9013 2.84565 31.1497C2.54571 31.2956 2.21077 31.0515 2.21077 30.6845V28.4459C2.21077 28.2498 2.31163 28.0723 2.46884 27.9868C3.00259 27.6967 3.62113 27.4326 4.31001 27.1999C4.60063 27.1017 4.89373 27.3459 4.89373 27.6867V29.9839ZM4.89373 24.5512C4.89373 24.7793 4.75811 24.9785 4.56274 25.0407C3.93216 25.2418 3.35636 25.4686 2.84565 25.717C2.54571 25.8629 2.21077 25.6188 2.21077 25.2518V23.0132C2.21077 22.8171 2.31163 22.6395 2.46884 22.5541C3.00259 22.264 3.62113 21.9999 4.31001 21.7672C4.60063 21.669 4.89373 21.9132 4.89373 22.254V24.5512ZM4.89373 19.1186C4.89373 19.3466 4.75811 19.5458 4.56274 19.6081C3.93216 19.8092 3.35636 20.0359 2.84565 20.2844C2.54571 20.4302 2.21077 20.1862 2.21077 19.8192V17.5805C2.21077 17.3844 2.31163 17.2068 2.46884 17.1214C3.00259 16.8314 3.62113 16.5672 4.31001 16.3345C4.60063 16.2363 4.89373 16.4805 4.89373 16.8213V19.1186ZM4.89373 13.686C4.89373 13.9141 4.75816 14.1132 4.56274 14.1755C3.93216 14.3766 3.35636 14.6033 2.84565 14.8518C2.54571 14.9977 2.21077 14.7536 2.21077 14.3866V12.1479C2.21077 11.9518 2.31163 11.7743 2.46884 11.6889C3.00259 11.3988 3.62113 11.1346 4.31001 10.9019C4.60063 10.8038 4.89373 11.0479 4.89373 11.3887V13.686ZM4.89373 8.2533C4.89373 8.48138 4.75811 8.68053 4.56274 8.7428C3.93216 8.94388 3.35636 9.17063 2.84565 9.41904C2.54571 9.56492 2.21077 9.32089 2.21077 8.95384V6.71513C2.21077 6.51902 2.31163 6.34153 2.46884 6.25608C3.00259 5.96599 3.62113 5.70183 4.31001 5.46913C4.60063 5.37097 4.89373 5.61516 4.89373 5.95593V8.2533ZM11.2273 34.4072C11.2273 34.682 11.0325 34.9065 10.788 34.9149C9.2802 34.9667 7.85567 35.1329 6.57049 35.3916C6.29259 35.4476 6.03732 35.2086 6.03732 34.8916V32.5684C6.03732 32.3243 6.19169 32.1138 6.40544 32.069C7.72567 31.7925 9.19835 31.6144 10.7609 31.5593C11.0161 31.5503 11.2273 31.781 11.2273 32.0677L11.2273 34.4072ZM11.2273 28.9746C11.2273 29.2493 11.0325 29.4739 10.788 29.4823C9.28024 29.5341 7.85567 29.7003 6.57049 29.959C6.29259 30.015 6.03732 29.776 6.03732 29.459V27.1358C6.03732 26.8916 6.19169 26.6811 6.40544 26.6364C7.72567 26.3598 9.19835 26.1817 10.7609 26.1267C11.0161 26.1177 11.2273 26.3483 11.2273 26.635L11.2273 28.9746ZM11.2273 23.5419C11.2273 23.8166 11.0325 24.0412 10.788 24.0496C9.2802 24.1013 7.85567 24.2676 6.57049 24.5263C6.29259 24.5823 6.03732 24.3433 6.03732 24.0263V21.703C6.03732 21.4589 6.19169 21.2484 6.40544 21.2036C7.72567 20.9272 9.19835 20.749 10.7609 20.6939C11.0161 20.6849 11.2273 20.9156 11.2273 21.2023L11.2273 23.5419ZM11.2273 18.1092C11.2273 18.384 11.0325 18.6086 10.788 18.617C9.2802 18.6688 7.85567 18.835 6.57049 19.0937C6.29259 19.1497 6.03732 18.9107 6.03732 18.5936V16.2704C6.03732 16.0263 6.19169 15.8158 6.40544 15.7709C7.72567 15.4945 9.19835 15.3163 10.7609 15.2613C11.016 15.2523 11.2273 15.4829 11.2273 15.7696L11.2273 18.1092ZM11.2273 12.6766C11.2273 12.9514 11.0325 13.176 10.788 13.1843C9.2802 13.2361 7.85567 13.4023 6.57049 13.661C6.29259 13.7169 6.03732 13.478 6.03732 13.161V10.8378C6.03732 10.5937 6.19169 10.3831 6.40544 10.3384C7.72567 10.0618 9.19835 9.88373 10.7609 9.82868C11.0161 9.81968 11.2273 10.0504 11.2273 10.337L11.2273 12.6766ZM11.2273 7.24391C11.2273 7.5187 11.0325 7.74327 10.788 7.75166C9.2802 7.80335 7.85567 7.96962 6.57049 8.22834C6.29259 8.28431 6.03732 8.04535 6.03732 7.72833V5.40513C6.03732 5.16099 6.19169 4.95046 6.40544 4.90567C7.72567 4.62921 9.19835 4.4511 10.7609 4.396C11.0161 4.387 11.2273 4.61767 11.2273 4.90435L11.2273 7.24391ZM18.7044 5.95598C18.7044 5.61516 18.9975 5.37097 19.2881 5.46918C19.977 5.70188 20.5955 5.96604 21.1293 6.25613C21.2865 6.34158 21.3873 6.51903 21.3873 6.71518V8.95384C21.3873 9.32089 21.0525 9.56492 20.7525 9.41904C20.2418 9.17058 19.666 8.94383 19.0354 8.7428C18.8401 8.68048 18.7044 8.48132 18.7044 8.2533V5.95598ZM17.5608 34.8916C17.5608 35.2087 17.3056 35.4476 17.0277 35.3917C15.7425 35.1329 14.318 34.9667 12.8102 34.915C12.5657 34.9066 12.3709 34.682 12.3709 34.4073V32.0678C12.3709 31.781 12.5822 31.5504 12.8374 31.5594C14.4 31.6145 15.8726 31.7926 17.1928 32.0691C17.4066 32.1139 17.5609 32.3243 17.5609 32.5685L17.5608 34.8916ZM17.5608 29.459C17.5608 29.776 17.3056 30.015 17.0277 29.959C15.7424 29.7003 14.318 29.5341 12.8102 29.4823C12.5657 29.4739 12.3709 29.2493 12.3709 28.9745V26.6351C12.3709 26.3483 12.5822 26.1177 12.8374 26.1267C14.4 26.1818 15.8726 26.3599 17.1928 26.6364C17.4066 26.6812 17.5609 26.8916 17.5609 27.1358L17.5608 29.459ZM17.5608 24.0263C17.5608 24.3433 17.3056 24.5823 17.0277 24.5263C15.7424 24.2676 14.318 24.1014 12.8102 24.0497C12.5657 24.0413 12.3709 23.8167 12.3709 23.542V21.2024C12.3709 20.9157 12.5822 20.6851 12.8374 20.6941C14.4 20.7491 15.8726 20.9273 17.1928 21.2038C17.4066 21.2486 17.5609 21.459 17.5609 21.7032L17.5608 24.0263ZM17.5608 18.5936C17.5608 18.9107 17.3056 19.1496 17.0277 19.0937C15.7425 18.8349 14.318 18.6687 12.8102 18.617C12.5657 18.6086 12.3709 18.384 12.3709 18.1092V15.7698C12.3709 15.483 12.5822 15.2524 12.8374 15.2614C14.4 15.3165 15.8726 15.4946 17.1928 15.771C17.4066 15.8159 17.5609 16.0263 17.5609 16.2705L17.5608 18.5936ZM17.5608 13.161C17.5608 13.478 17.3056 13.7169 17.0277 13.661C15.7425 13.4023 14.318 13.236 12.8102 13.1843C12.5657 13.176 12.3709 12.9514 12.3709 12.6766V10.3371C12.3709 10.0504 12.5822 9.81974 12.8374 9.82873C14.4 9.88378 15.8726 10.0619 17.1928 10.3384C17.4066 10.3832 17.5609 10.5937 17.5609 10.8379L17.5608 13.161ZM17.5608 7.72838C17.5608 8.04541 17.3056 8.28436 17.0277 8.22839C15.7425 7.96967 14.318 7.8034 12.8102 7.75171C12.5657 7.74332 12.3709 7.51875 12.3709 7.24397V4.90445C12.3709 4.61772 12.5822 4.3871 12.8374 4.3961C14.4 4.45115 15.8726 4.62926 17.1928 4.90578C17.4066 4.95056 17.5609 5.16104 17.5609 5.40523L17.5608 7.72838ZM18.7044 13.686V11.3887C18.7044 11.0479 18.9975 10.8037 19.2881 10.9019C19.977 11.1346 20.5955 11.3988 21.1293 11.6889C21.2865 11.7743 21.3873 11.9518 21.3873 12.1479V14.3866C21.3873 14.7536 21.0525 14.9977 20.7525 14.8518C20.2418 14.6033 19.666 14.3766 19.0354 14.1755C18.84 14.1132 18.7044 13.914 18.7044 13.686ZM33.3685 41.2854H26.3973V36.5942C26.3973 36.3135 26.6 36.0859 26.85 36.0859H32.9158C33.1659 36.0859 33.3685 36.3135 33.3685 36.5942V41.2854ZM40.5228 32.3657C40.5228 32.6464 40.3201 32.874 40.0701 32.874H20.674C20.424 32.874 20.2213 32.6464 20.2213 32.3657V30.4048C20.2213 30.1241 20.424 29.8965 20.674 29.8965H40.0701C40.3201 29.8965 40.5228 30.1241 40.5228 30.4048V32.3657ZM40.5228 27.3338C40.5228 27.6145 40.3201 27.8421 40.0701 27.8421H20.674C20.424 27.8421 20.2213 27.6145 20.2213 27.3338V25.3728C20.2213 25.0921 20.424 24.8645 20.674 24.8645H40.0701C40.3201 24.8645 40.5228 25.0921 40.5228 25.3728V27.3338ZM40.5228 22.3019C40.5228 22.5826 40.3201 22.8102 40.0701 22.8102H20.674C20.424 22.8102 20.2213 22.5826 20.2213 22.3019V20.3409C20.2213 20.0602 20.424 19.8326 20.674 19.8326H40.0701C40.3201 19.8326 40.5228 20.0602 40.5228 20.3409V22.3019Z" fill="#FF7205"/>
</svg>
